ffmpeg version N-87257-g8e17cd2 Copyright (c) 2000-2017 the FFmpeg developers
  built with gcc 7.1.0 (GCC)
  configuration: --enable-gpl --enable-version3 --enable-cuda --enable-cuvid --enable-d3d11va --enable-dxva2 --enable-libmfx --enable-nvenc --enable-avisynth --enable-bzlib --enable-fontconfig --enable-frei0r --enable-gnutls --enable-iconv --enable-libass --enable-libbluray --enable-libbs2b --enable-libcaca --enable-libfreetype --enable-libgme --enable-libgsm --enable-libilbc --enable-libmodplug --enable-libmp3lame --enable-libopencore-amrnb --enable-libopencore-amrwb --enable-libopenh264 --enable-libopenjpeg --enable-libopus --enable-librtmp --enable-libsnappy --enable-libsoxr --enable-libspeex --enable-libtheora --enable-libtwolame --enable-libvidstab --enable-libvo-amrwbenc --enable-libvorbis --enable-libvpx --enable-libwavpack --enable-libwebp --enable-libx264 --enable-libx265 --enable-libxavs --enable-libxvid --enable-libzimg --enable-lzma --enable-zlib
  libavutil      55. 74.100 / 55. 74.100
  libavcodec     57.105.100 / 57.105.100
  libavformat    57. 82.100 / 57. 82.100
  libavdevice    57.  8.100 / 57.  8.100
  libavfilter     6.105.100 /  6.105.100
  libswscale      4.  7.103 /  4.  7.103
  libswresample   2.  8.100 /  2.  8.100
  libpostproc    54.  6.100 / 54.  6.100
Input #0, mov,mp4,m4a,3gp,3g2,mj2, from 'D:\\Documents\\catcuts\\big_buck_bunny_480p_h264.mov':
  Metadata:
    major_brand     : qt  
    minor_version   : 537199360
    compatible_brands: qt  
    creation_time   : 2008-05-27T18:32:32.000000Z
    com.apple.quicktime.player.movie.audio.gain: 1.000000
    com.apple.quicktime.player.movie.audio.treble: 0.000000
    com.apple.quicktime.player.movie.audio.bass: 0.000000
    com.apple.quicktime.player.movie.audio.balance: 0.000000
    com.apple.quicktime.player.movie.audio.pitchshift: 0.000000
    com.apple.quicktime.player.movie.audio.mute: 
    com.apple.quicktime.player.movie.visual.brightness: 0.000000
    com.apple.quicktime.player.movie.visual.color: 1.000000
    com.apple.quicktime.player.movie.visual.tint: 0.000000
    com.apple.quicktime.player.movie.visual.contrast: 1.000000
    com.apple.quicktime.player.version: 7.4.1 (14)
    com.apple.quicktime.version: 7.4.1 (14) 0x7418000 (Mac OS X, 10.5.2, 9C31)
    timecode        : 00:00:00:00
  Duration: 00:09:56.46, start: 0.000000, bitrate: 3342 kb/s
    Stream #0:0(eng): Video: h264 (Main) (avc1 / 0x31637661), yuv420p(tv, bt709), 853x480, 2899 kb/s, 24 fps, 24 tbr, 2400 tbn, 4800 tbc (default)
    Metadata:
      rotate          : 0
      creation_time   : 2008-05-27T18:32:32.000000Z
      handler_name    : Apple Alias Data Handler
      encoder         : H.264
    Side data:
      displaymatrix: rotation of -0.00 degrees
    Stream #0:1(eng): Data: none (tmcd / 0x64636D74) (default)
    Metadata:
      rotate          : 0
      creation_time   : 2008-05-27T18:32:32.000000Z
      handler_name    : Apple Alias Data Handler
      timecode        : 00:00:00:00
    Stream #0:2(eng): Audio: aac (LC) (mp4a / 0x6134706D), 48000 Hz, 5.1, fltp, 437 kb/s (default)
    Metadata:
      rotate          : 0
      creation_time   : 2008-05-27T18:32:32.000000Z
      handler_name    : Apple Alias Data Handler
Output #0, flv, to 'rtmp://192.168.116.32/live/big_buck_bunny':
  Metadata:
    major_brand     : qt  
    minor_version   : 537199360
    compatible_brands: qt  
    timecode        : 00:00:00:00
    com.apple.quicktime.player.movie.audio.gain: 1.000000
    com.apple.quicktime.player.movie.audio.treble: 0.000000
    com.apple.quicktime.player.movie.audio.bass: 0.000000
    com.apple.quicktime.player.movie.audio.balance: 0.000000
    com.apple.quicktime.player.movie.audio.pitchshift: 0.000000
    com.apple.quicktime.player.movie.audio.mute: 
    com.apple.quicktime.player.movie.visual.brightness: 0.000000
    com.apple.quicktime.player.movie.visual.color: 1.000000
    com.apple.quicktime.player.movie.visual.tint: 0.000000
    com.apple.quicktime.player.movie.visual.contrast: 1.000000
    com.apple.quicktime.player.version: 7.4.1 (14)
    com.apple.quicktime.version: 7.4.1 (14) 0x7418000 (Mac OS X, 10.5.2, 9C31)
    encoder         : Lavf57.82.100
    Stream #0:0(eng): Video: h264 (Main) ([7][0][0][0] / 0x0007), yuv420p(tv, bt709), 853x480, q=2-31, 2899 kb/s, 24 fps, 24 tbr, 1k tbn, 2400 tbc (default)
    Metadata:
      rotate          : 0
      creation_time   : 2008-05-27T18:32:32.000000Z
      handler_name    : Apple Alias Data Handler
      encoder         : H.264
    Side data:
      displaymatrix: rotation of -0.00 degrees
    Stream #0:1(eng): Audio: aac (LC) ([10][0][0][0] / 0x000A), 48000 Hz, 5.1, fltp, 437 kb/s (default)
    Metadata:
      rotate          : 0
      creation_time   : 2008-05-27T18:32:32.000000Z
      handler_name    : Apple Alias Data Handler
Stream mapping:
  Stream #0:0 -> #0:0 (copy)
  Stream #0:2 -> #0:1 (copy)
Press [q] to stop, [?] for help
frame=    0 fps=0.0 q=-1.0 size=       1kB time=00:00:00.51 bitrate=  18.7kbits/s speed=1.02x    frame=   13 fps= 13 q=-1.0 size=     106kB time=00:00:01.02 bitrate= 845.4kbits/s speed=1.02x    frame=   23 fps= 15 q=-1.0 size=     218kB time=00:00:01.49 bitrate=1195.2kbits/s speed=0.991x    frame=   37 fps= 18 q=-1.0 size=     430kB time=00:00:01.98 bitrate=1776.7kbits/s speed=0.989x    frame=   46 fps= 18 q=-1.0 size=     571kB time=00:00:02.49 bitrate=1875.5kbits/s speed=0.996x    frame=   61 fps= 20 q=-1.0 size=     815kB time=00:00:03.02 bitrate=2205.5kbits/s speed=1.01x    frame=   70 fps= 20 q=-1.0 size=     947kB time=00:00:03.49 bitrate=2218.0kbits/s speed=0.996x    frame=   85 fps= 21 q=-1.0 size=    1182kB time=00:00:04.03 bitrate=2402.1kbits/s speed=   1x    frame=   96 fps= 21 q=-1.0 size=    1375kB time=00:00:04.54 bitrate=2478.7kbits/s speed=   1x    frame=  109 fps= 22 q=-1.0 size=    1648kB time=00:00:05.03 bitrate=2681.3kbits/s speed=   1x    frame=  120 fps= 22 q=-1.0 size=    1856kB time=00:00:05.54 bitrate=2741.6kbits/s speed=   1x    frame=  133 fps= 22 q=-1.0 size=    2089kB time=00:00:06.05 bitrate=2823.8kbits/s speed=   1x    frame=  144 fps= 22 q=-1.0 size=    2212kB time=00:00:06.54 bitrate=2767.5kbits/s speed=   1x    frame=  157 fps= 22 q=-1.0 size=    2447kB time=00:00:07.06 bitrate=2839.2kbits/s speed=   1x    frame=  168 fps= 22 q=-1.0 size=    2598kB time=00:00:07.57 bitrate=2809.9kbits/s speed=   1x    frame=  181 fps= 22 q=-1.0 size=    2827kB time=00:00:08.06 bitrate=2871.9kbits/s speed=   1x    frame=  192 fps= 22 q=-1.0 size=    2988kB time=00:00:08.57 bitrate=2854.2kbits/s speed=   1x    frame=  205 fps= 23 q=-1.0 size=    3302kB time=00:00:09.06 bitrate=2983.1kbits/s speed=   1x    frame=  216 fps= 23 q=-1.0 size=    3496kB time=00:00:09.57 bitrate=2989.6kbits/s speed=   1x    frame=  229 fps= 23 q=-1.0 size=    3856kB time=00:00:10.09 bitrate=3130.1kbits/s speed=   1x    frame=  240 fps= 23 q=-1.0 size=    4103kB time=00:00:10.58 bitrate=3176.7kbits/s speed=   1x    frame=  253 fps= 23 q=-1.0 size=    4467kB time=00:00:11.09 bitrate=3298.9kbits/s speed=   1x    frame=  264 fps= 23 q=-1.0 size=    4715kB time=00:00:11.60 bitrate=3328.6kbits/s speed=   1x    frame=  277 fps= 23 q=-1.0 size=    5065kB time=00:00:12.09 bitrate=3430.3kbits/s speed=   1x    frame=  288 fps= 23 q=-1.0 size=    5419kB time=00:00:12.60 bitrate=3521.1kbits/s speed=   1x    frame=  301 fps= 23 q=-1.0 size=    5835kB time=00:00:13.09 bitrate=3649.3kbits/s speed=   1x    frame=  312 fps= 23 q=-1.0 size=    6090kB time=00:00:13.61 bitrate=3665.3kbits/s speed=   1x    frame=  325 fps= 23 q=-1.0 size=    6506kB time=00:00:14.12 bitrate=3773.6kbits/s speed=   1x    frame=  336 fps= 23 q=-1.0 size=    6764kB time=00:00:14.61 bitrate=3792.1kbits/s speed=   1x    frame=  349 fps= 23 q=-1.0 size=    7177kB time=00:00:15.12 bitrate=3887.4kbits/s speed=   1x    frame=  360 fps= 23 q=-1.0 size=    7433kB time=00:00:15.61 bitrate=3899.0kbits/s speed=   1x    frame=  373 fps= 23 q=-1.0 size=    7855kB time=00:00:16.12 bitrate=3990.0kbits/s speed=   1x    frame=  384 fps= 23 q=-1.0 size=    8063kB time=00:00:16.64 bitrate=3969.5kbits/s speed=   1x    frame=  397 fps= 23 q=-1.0 size=    8271kB time=00:00:17.15 bitrate=3950.4kbits/s speed=   1x    frame=  408 fps= 23 q=-1.0 size=    8369kB time=00:00:17.64 bitrate=3885.7kbits/s speed=   1x    frame=  421 fps= 23 q=-1.0 size=    8542kB time=00:00:18.15 bitrate=3854.1kbits/s speed=   1x    frame=  432 fps= 23 q=-1.0 size=    8672kB time=00:00:18.64 bitrate=3810.0kbits/s speed=   1x    frame=  445 fps= 23 q=-1.0 size=    8846kB time=00:00:19.15 bitrate=3782.7kbits/s speed=   1x    frame=  456 fps= 23 q=-1.0 size=    8930kB time=00:00:19.66 bitrate=3719.1kbits/s speed=   1x    frame=  469 fps= 23 q=-1.0 size=    9068kB time=00:00:20.16 bitrate=3684.9kbits/s speed=   1x    frame=  480 fps= 23 q=-1.0 size=    9167kB time=00:00:20.67 bitrate=3632.8kbits/s speed=   1x    frame=  493 fps= 23 q=-1.0 size=    9351kB time=00:00:21.18 bitrate=3616.1kbits/s speed=   1x    frame=  504 fps= 23 q=-1.0 size=    9504kB time=00:00:21.67 bitrate=3592.0kbits/s speed=   1x    frame=  517 fps= 23 q=-1.0 size=    9618kB time=00:00:22.18 bitrate=3551.4kbits/s speed=   1x    frame=  528 fps= 23 q=-1.0 size=    9666kB time=00:00:22.69 bitrate=3488.6kbits/s speed=   1x    frame=  541 fps= 23 q=-1.0 size=    9775kB time=00:00:23.21 bitrate=3449.9kbits/s speed=   1x    frame=  552 fps= 23 q=-1.0 size=    9815kB time=00:00:23.70 bitrate=3392.3kbits/s speed=   1x    frame=  565 fps= 23 q=-1.0 size=   10280kB time=00:00:24.21 bitrate=3477.9kbits/s speed=   1x    frame=  576 fps= 23 q=-1.0 size=   10549kB time=00:00:24.72 bitrate=3495.2kbits/s speed=   1x    frame=  589 fps= 23 q=-1.0 size=   10974kB time=00:00:25.21 bitrate=3565.1kbits/s speed=   1x    frame=  600 fps= 23 q=-1.0 size=   11253kB time=00:00:25.72 bitrate=3583.1kbits/s speed=   1x    frame=  613 fps= 23 q=-1.0 size=   11712kB time=00:00:26.21 bitrate=3659.4kbits/s speed=   1x    frame=  624 fps= 23 q=-1.0 size=   12001kB time=00:00:26.73 bitrate=3677.8kbits/s speed=   1x    frame=  637 fps= 23 q=-1.0 size=   12409kB time=00:00:27.24 bitrate=3731.3kbits/s speed=   1x    frame=  648 fps= 23 q=-1.0 size=   12665kB time=00:00:27.75 bitrate=3738.0kbits/s speed=   1x    frame=  661 fps= 23 q=-1.0 size=   13065kB time=00:00:28.24 bitrate=3789.3kbits/s speed=   1x    frame=  672 fps= 23 q=-1.0 size=   13321kB time=00:00:28.75 bitrate=3794.8kbits/s speed=   1x    frame=  685 fps= 23 q=-1.0 size=   13724kB time=00:00:29.26 bitrate=3841.2kbits/s speed=   1x    frame=  696 fps= 23 q=-1.0 size=   13999kB time=00:00:29.76 bitrate=3853.5kbits/s speed=   1x    frame=  709 fps= 23 q=-1.0 size=   14440kB time=00:00:30.27 bitrate=3907.6kbits/s speed=   1x    frame=  720 fps= 23 q=-1.0 size=   14740kB time=00:00:30.78 bitrate=3922.5kbits/s speed=   1x    frame=  733 fps= 23 q=-1.0 size=   15183kB time=00:00:31.27 bitrate=3976.9kbits/s speed=   1x    frame=  744 fps= 23 q=-1.0 size=   15462kB time=00:00:31.78 bitrate=3984.8kbits/s speed=   1x    frame=  757 fps= 23 q=-1.0 size=   15914kB time=00:00:32.29 bitrate=4036.4kbits/s speed=   1x    frame=  768 fps= 23 q=-1.0 size=   16203kB time=00:00:32.78 bitrate=4048.2kbits/s speed=   1x    frame=  781 fps= 23 q=-1.0 size=   16614kB time=00:00:33.30 bitrate=4087.1kbits/s speed=   1x    frame=  792 fps= 23 q=-1.0 size=   16880kB time=00:00:33.79 bitrate=4092.1kbits/s speed=   1x    frame=  805 fps= 23 q=-1.0 size=   17253kB time=00:00:34.30 bitrate=4120.1kbits/s speed=   1x    frame=  816 fps= 23 q=-1.0 size=   17470kB time=00:00:34.81 bitrate=4110.7kbits/s speed=   1x    frame=  829 fps= 23 q=-1.0 size=   17771kB time=00:00:35.30 bitrate=4123.2kbits/s speed=   1x    frame=  840 fps= 23 q=-1.0 size=   17954kB time=00:00:35.81 bitrate=4106.1kbits/s speed=   1x    frame=  853 fps= 23 q=-1.0 size=   18244kB time=00:00:36.33 bitrate=4113.6kbits/s speed=   1x    frame=  864 fps= 23 q=-1.0 size=   18415kB time=00:00:36.84 bitrate=4094.6kbits/s speed=   1x    frame=  877 fps= 23 q=-1.0 size=   18691kB time=00:00:37.33 bitrate=4101.3kbits/s speed=   1x    frame=  888 fps= 23 q=-1.0 size=   18856kB time=00:00:37.84 bitrate=4081.5kbits/s speed=   1x    frame=  901 fps= 24 q=-1.0 size=   19114kB time=00:00:38.35 bitrate=4082.3kbits/s speed=   1x    frame=  912 fps= 23 q=-1.0 size=   19265kB time=00:00:38.84 bitrate=4062.4kbits/s speed=   1x    frame=  925 fps= 24 q=-1.0 size=   19509kB time=00:00:39.36 bitrate=4060.5kbits/s speed=   1x    frame=  936 fps= 23 q=-1.0 size=   19671kB time=00:00:39.87 bitrate=4041.5kbits/s speed=   1x    frame=  949 fps= 24 q=-1.0 size=   19948kB time=00:00:40.36 bitrate=4048.6kbits/s speed=   1x    frame=  960 fps= 23 q=-1.0 size=   20106kB time=00:00:40.87 bitrate=4029.6kbits/s speed=   1x    frame=  973 fps= 24 q=-1.0 size=   20352kB time=00:00:41.38 bitrate=4028.4kbits/s speed=   1x    frame=  984 fps= 23 q=-1.0 size=   20491kB time=00:00:41.87 bitrate=4008.4kbits/s speed=   1x    frame=  997 fps= 24 q=-1.0 size=   20722kB time=00:00:42.38 bitrate=4004.7kbits/s speed=   1x    frame= 1008 fps= 24 q=-1.0 size=   20859kB time=00:00:42.88 bitrate=3985.0kbits/s speed=   1x    frame= 1021 fps= 24 q=-1.0 size=   21075kB time=00:00:43.39 bitrate=3978.8kbits/s speed=   1x    frame= 1032 fps= 24 q=-1.0 size=   21187kB time=00:00:43.90 bitrate=3953.2kbits/s speed=   1x    frame= 1045 fps= 24 q=-1.0 size=   21405kB time=00:00:44.41 bitrate=3947.9kbits/s speed=   1x    frame= 1056 fps= 24 q=-1.0 size=   21529kB time=00:00:44.90 bitrate=3927.3kbits/s speed=   1x    frame= 1069 fps= 24 q=-1.0 size=   21776kB time=00:00:45.41 bitrate=3927.7kbits/s speed=   1x    frame= 1080 fps= 24 q=-1.0 size=   21934kB time=00:00:45.90 bitrate=3913.9kbits/s speed=   1x    frame= 1093 fps= 24 q=-1.0 size=   22183kB time=00:00:46.42 bitrate=3914.6kbits/s speed=   1x    frame= 1104 fps= 24 q=-1.0 size=   22314kB time=00:00:46.93 bitrate=3894.9kbits/s speed=   1x    frame= 1117 fps= 24 q=-1.0 size=   22533kB time=00:00:47.42 bitrate=3892.3kbits/s speed=   1x    frame= 1128 fps= 24 q=-1.0 size=   22680kB time=00:00:47.93 bitrate=3875.8kbits/s speed=   1x    frame= 1141 fps= 24 q=-1.0 size=   22888kB time=00:00:48.44 bitrate=3870.1kbits/s speed=   1x    frame= 1153 fps= 24 q=-1.0 size=   23291kB time=00:00:48.93 bitrate=3898.7kbits/s speed=   1x    frame= 1165 fps= 24 q=-1.0 size=   23511kB time=00:00:49.45 bitrate=3894.9kbits/s speed=   1x    frame= 1177 fps= 24 q=-1.0 size=   23855kB time=00:00:49.94 bitrate=3913.0kbits/s speed=   1x    frame= 1189 fps= 24 q=-1.0 size=   24116kB time=00:00:50.45 bitrate=3915.7kbits/s speed=   1x    frame= 1201 fps= 24 q=-1.0 size=   24456kB time=00:00:50.94 bitrate=3932.6kbits/s speed=   1x    frame= 1213 fps= 24 q=-1.0 size=   24673kB time=00:00:51.45 bitrate=3928.0kbits/s speed=   1x    frame= 1225 fps= 24 q=-1.0 size=   24989kB time=00:00:51.96 bitrate=3939.1kbits/s speed=   1x    frame= 1237 fps= 24 q=-1.0 size=   25136kB time=00:00:52.48 bitrate=3923.6kbits/s speed=   1x    frame= 1249 fps= 24 q=-1.0 size=   25380kB time=00:00:52.97 bitrate=3925.0kbits/s speed=   1x    frame= 1261 fps= 24 q=-1.0 size=   25543kB time=00:00:53.48 bitrate=3912.5kbits/s speed=   1x    frame= 1273 fps= 24 q=-1.0 size=   25801kB time=00:00:53.97 bitrate=3916.1kbits/s speed=   1x    frame= 1285 fps= 24 q=-1.0 size=   25973kB time=00:00:54.48 bitrate=3905.1kbits/s speed=   1x    frame= 1297 fps= 24 q=-1.0 size=   26223kB time=00:00:54.99 bitrate=3906.0kbits/s speed=   1x    frame= 1309 fps= 24 q=-1.0 size=   26402kB time=00:00:55.48 bitrate=3897.9kbits/s speed=   1x    frame= 1325 fps= 24 q=-1.0 size=   26762kB time=00:00:55.97 bitrate=3916.3kbits/s speed=   1x    frame= 1334 fps= 24 q=-1.0 size=   26931kB time=00:00:56.49 bitrate=3905.4kbits/s speed=   1x    frame= 1357 fps= 24 q=-1.0 size=   27290kB time=00:00:57.00 bitrate=3921.8kbits/s speed=   1x    frame= 1358 fps= 24 q=-1.0 size=   27293kB time=00:00:57.49 bitrate=3888.9kbits/s speed=   1x    frame= 1381 fps= 24 q=-1.0 size=   27432kB time=00:00:58.00 bitrate=3874.2kbits/s speed=   1x    frame= 1382 fps= 24 q=-1.0 size=   27438kB time=00:00:58.49 bitrate=3842.5kbits/s speed=   1x    frame= 1405 fps= 24 q=-1.0 size=   27631kB time=00:00:59.02 bitrate=3834.6kbits/s speed=   1x    frame= 1416 fps= 24 q=-1.0 size=   27711kB time=00:00:59.52 bitrate=3814.0kbits/s speed=   1x    frame= 1429 fps= 24 q=-1.0 size=   27835kB time=00:01:00.03 bitrate=3798.4kbits/s speed=   1x    frame= 1440 fps= 24 q=-1.0 size=   27882kB time=00:01:00.54 bitrate=3772.6kbits/s speed=   1x    frame= 1453 fps= 24 q=-1.0 size=   28008kB time=00:01:01.03 bitrate=3759.2kbits/s speed=   1x    frame= 1464 fps= 24 q=-1.0 size=   28135kB time=00:01:01.54 bitrate=3744.8kbits/s speed=   1x    frame= 1477 fps= 24 q=-1.0 size=   28288kB time=00:01:02.05 bitrate=3734.1kbits/s speed=   1x    frame= 1488 fps= 24 q=-1.0 size=   28373kB time=00:01:02.54 bitrate=3716.0kbits/s speed=   1x    frame= 1501 fps= 24 q=-1.0 size=   28503kB time=00:01:03.06 bitrate=3702.7kbits/s speed=   1x    frame= 1512 fps= 24 q=-1.0 size=   28604kB time=00:01:03.55 bitrate=3687.2kbits/s speed=   1x    frame= 1525 fps= 24 q=-1.0 size=   28763kB time=00:01:04.06 bitrate=3677.9kbits/s speed=   1x    frame= 1536 fps= 24 q=-1.0 size=   28937kB time=00:01:04.55 bitrate=3672.1kbits/s speed=   1x    frame= 1549 fps= 24 q=-1.0 size=   29134kB time=00:01:05.06 bitrate=3668.0kbits/s speed=   1x    frame= 1560 fps= 24 q=-1.0 size=   29211kB time=00:01:05.55 bitrate=3650.1kbits/s speed=   1x    frame= 1573 fps= 24 q=-1.0 size=   29403kB time=00:01:06.09 bitrate=3644.4kbits/s speed=   1x    frame= 1584 fps= 24 q=-1.0 size=   29509kB time=00:01:06.60 bitrate=3629.5kbits/s speed=   1x    frame= 1597 fps= 24 q=-1.0 size=   29719kB time=00:01:07.11 bitrate=3627.5kbits/s speed=   1x    frame= 1608 fps= 24 q=-1.0 size=   29851kB time=00:01:07.60 bitrate=3617.1kbits/s speed=   1x    frame= 1621 fps= 24 q=-1.0 size=   30029kB time=00:01:08.11 bitrate=3611.4kbits/s speed=   1x    frame= 1632 fps= 24 q=-1.0 size=   30128kB time=00:01:08.62 bitrate=3596.3kbits/s speed=   1x    frame= 1645 fps= 24 q=-1.0 size=   30280kB time=00:01:09.12 bitrate=3588.8kbits/s speed=   1x    frame= 1656 fps= 24 q=-1.0 size=   30408kB time=00:01:09.63 bitrate=3577.4kbits/s speed=   1x    frame= 1669 fps= 24 q=-1.0 size=   30654kB time=00:01:10.14 bitrate=3580.1kbits/s speed=   1x    frame= 1680 fps= 24 q=-1.0 size=   30696kB time=00:01:10.63 bitrate=3560.0kbits/s speed=   1x    frame= 1693 fps= 24 q=-1.0 size=   30843kB time=00:01:11.14 bitrate=3551.4kbits/s speed=   1x    frame= 1704 fps= 24 q=-1.0 size=   30892kB time=00:01:11.65 bitrate=3531.5kbits/s speed=   1x    frame= 1717 fps= 24 q=-1.0 size=   31138kB time=00:01:12.14 bitrate=3535.5kbits/s speed=   1x    frame= 1728 fps= 24 q=-1.0 size=   31185kB time=00:01:12.66 bitrate=3515.9kbits/s speed=   1x    frame= 1741 fps= 24 q=-1.0 size=   31362kB time=00:01:13.15 bitrate=3512.1kbits/s speed=   1x    frame= 1752 fps= 24 q=-1.0 size=   31423kB time=00:01:13.66 bitrate=3494.5kbits/s speed=   1x    frame= 1765 fps= 24 q=-1.0 size=   31630kB time=00:01:14.17 bitrate=3493.3kbits/s speed=   1x    frame= 1776 fps= 24 q=-1.0 size=   31715kB time=00:01:14.66 bitrate=3479.5kbits/s speed=   1x    frame= 1789 fps= 24 q=-1.0 size=   31884kB time=00:01:15.17 bitrate=3474.2kbits/s speed=   1x    frame= 1800 fps= 24 q=-1.0 size=   32047kB time=00:01:15.69 bitrate=3468.5kbits/s speed=   1x    frame= 1813 fps= 24 q=-1.0 size=   32211kB time=00:01:16.18 bitrate=3463.8kbits/s speed=   1x    frame= 1824 fps= 24 q=-1.0 size=   32509kB time=00:01:16.69 bitrate=3472.5kbits/s speed=   1x    frame= 1837 fps= 24 q=-1.0 size=   32828kB time=00:01:17.20 bitrate=3483.2kbits/s speed=   1x    frame= 1848 fps= 24 q=-1.0 size=   33078kB time=00:01:17.69 bitrate=3487.7kbits/s speed=   1x    frame= 1861 fps= 24 q=-1.0 size=   33484kB time=00:01:18.20 bitrate=3507.4kbits/s speed=   1x    frame= 1872 fps= 24 q=-1.0 size=   33756kB time=00:01:18.72 bitrate=3512.9kbits/s speed=   1x    frame= 1885 fps= 24 q=-1.0 size=   34113kB time=00:01:19.21 bitrate=3528.0kbits/s speed=   1x    frame= 1896 fps= 24 q=-1.0 size=   34388kB time=00:01:19.72 bitrate=3533.5kbits/s speed=   1x    frame= 1909 fps= 24 q=-1.0 size=   34729kB time=00:01:20.21 bitrate=3546.8kbits/s speed=   1x    frame= 1920 fps= 24 q=-1.0 size=   35005kB time=00:01:20.72 bitrate=3552.4kbits/s speed=   1x    frame= 1933 fps= 24 q=-1.0 size=   35166kB time=00:01:21.21 bitrate=3547.1kbits/s speed=   1x    frame= 1944 fps= 24 q=-1.0 size=   35296kB time=00:01:21.72 bitrate=3537.9kbits/s speed=   1x    frame= 1957 fps= 24 q=-1.0 size=   35471kB time=00:01:22.24 bitrate=3533.3kbits/s speed=   1x    frame= 1968 fps= 24 q=-1.0 size=   35562kB time=00:01:22.73 bitrate=3521.3kbits/s speed=   1x    frame= 1981 fps= 24 q=-1.0 size=   35727kB time=00:01:23.24 bitrate=3515.9kbits/s speed=   1x    frame= 1992 fps= 24 q=-1.0 size=   35858kB time=00:01:23.75 bitrate=3507.3kbits/s speed=   1x    frame= 2005 fps= 24 q=-1.0 size=   36054kB time=00:01:24.24 bitrate=3505.9kbits/s speed=   1x    frame= 2016 fps= 24 q=-1.0 size=   36136kB time=00:01:24.75 bitrate=3492.6kbits/s speed=   1x    frame= 2029 fps= 24 q=-1.0 size=   36279kB time=00:01:25.24 bitrate=3486.3kbits/s speed=   1x    frame= 2040 fps= 24 q=-1.0 size=   36312kB time=00:01:25.76 bitrate=3468.6kbits/s speed=   1x    frame= 2053 fps= 24 q=-1.0 size=   36438kB time=00:01:26.25 bitrate=3460.8kbits/s speed=   1x    frame= 2064 fps= 24 q=-1.0 size=   36508kB time=00:01:26.76 bitrate=3447.0kbits/s speed=   1x    frame= 2077 fps= 24 q=-1.0 size=   36657kB time=00:01:27.27 bitrate=3440.7kbits/s speed=   1x    frame= 2088 fps= 24 q=-1.0 size=   36751kB time=00:01:27.78 bitrate=3429.5kbits/s speed=   1x    frame= 2101 fps= 24 q=-1.0 size=   36919kB time=00:01:28.27 bitrate=3426.0kbits/s speed=   1x    frame= 2112 fps= 24 q=-1.0 size=   37013kB time=00:01:28.78 bitrate=3414.9kbits/s speed=   1x    frame= 2125 fps= 24 q=-1.0 size=   37143kB time=00:01:29.30 bitrate=3407.3kbits/s speed=   1x    frame= 2136 fps= 24 q=-1.0 size=   37190kB time=00:01:29.79 bitrate=3393.0kbits/s speed=   1x    frame= 2149 fps= 24 q=-1.0 size=   37344kB time=00:01:30.30 bitrate=3387.7kbits/s speed=   1x    frame= 2160 fps= 24 q=-1.0 size=   37528kB time=00:01:30.81 bitrate=3385.2kbits/s speed=   1x    frame= 2173 fps= 24 q=-1.0 size=   37786kB time=00:01:31.30 bitrate=3390.1kbits/s speed=   1x    frame= 2184 fps= 24 q=-1.0 size=   37931kB time=00:01:31.81 bitrate=3384.2kbits/s speed=   1x    frame= 2197 fps= 24 q=-1.0 size=   38243kB time=00:01:32.30 bitrate=3393.9kbits/s speed=   1x    frame= 2208 fps= 24 q=-1.0 size=   38304kB time=00:01:32.82 bitrate=3380.6kbits/s speed=   1x    frame= 2221 fps= 24 q=-1.0 size=   38441kB time=00:01:33.33 bitrate=3374.0kbits/s speed=   1x    frame= 2232 fps= 24 q=-1.0 size=   38489kB time=00:01:33.84 bitrate=3359.8kbits/s speed=   1x    frame= 2245 fps= 24 q=-1.0 size=   38635kB time=00:01:34.33 bitrate=3355.0kbits/s speed=   1x    frame= 2256 fps= 24 q=-1.0 size=   38677kB time=00:01:34.84 bitrate=3340.5kbits/s speed=   1x    frame= 2269 fps= 24 q=-1.0 size=   38838kB time=00:01:35.33 bitrate=3337.1kbits/s speed=   1x    frame= 2280 fps= 24 q=-1.0 size=   38903kB time=00:01:35.85 bitrate=3324.9kbits/s speed=   1x    frame= 2293 fps= 24 q=-1.0 size=   39074kB time=00:01:36.36 bitrate=3321.8kbits/s speed=   1x    frame= 2304 fps= 24 q=-1.0 size=   39173kB time=00:01:36.85 bitrate=3313.3kbits/s speed=   1x    frame= 2317 fps= 24 q=-1.0 size=   39354kB time=00:01:37.36 bitrate=3311.2kbits/s speed=   1x    frame= 2328 fps= 24 q=-1.0 size=   39451kB time=00:01:37.87 bitrate=3301.9kbits/s speed=   1x    frame= 2341 fps= 24 q=-1.0 size=   39610kB time=00:01:38.36 bitrate=3298.7kbits/s speed=   1x    frame= 2352 fps= 24 q=-1.0 size=   39666kB time=00:01:38.88 bitrate=3286.2kbits/s speed=   1x    frame= 2365 fps= 24 q=-1.0 size=   39797kB time=00:01:39.37 bitrate=3280.8kbits/s speed=   1x    frame= 2376 fps= 24 q=-1.0 size=   39846kB time=00:01:39.88 bitrate=3268.0kbits/s speed=   1x    frame= 2389 fps= 24 q=-1.0 size=   39977kB time=00:01:40.39 bitrate=3262.0kbits/s speed=   1x    frame= 2400 fps= 24 q=-1.0 size=   40134kB time=00:01:40.90 bitrate=3258.2kbits/s speed=   1x    frame= 2413 fps= 24 q=-1.0 size=   40318kB time=00:01:41.39 bitrate=3257.4kbits/s speed=   1x    frame= 2424 fps= 24 q=-1.0 size=   40394kB time=00:01:41.90 bitrate=3247.1kbits/s speed=   1x    frame= 2437 fps= 24 q=-1.0 size=   40582kB time=00:01:42.40 bitrate=3246.5kbits/s speed=   1x    Larger timestamp than 24-bit: 0xfffffd72
[flv @ 000000000031d960] Failed to update header with correct duration.
[flv @ 000000000031d960] Failed to update header with correct filesize.
frame= 2448 fps= 24 q=-1.0 Lsize=   40799kB time=00:01:42.57 bitrate=3258.5kbits/s speed=   1x    
video:35179kB audio:5492kB subtitle:0kB other streams:0kB global headers:0kB muxing overhead: 0.316787%
